<?xml version="1.0" standalone="no"?>
<!DOCTYPE svg PUBLIC "-//W3C//DTD SVG 20010904//EN"
 "http://www.w3.org/TR/2001/REC-SVG-20010904/DTD/svg10.dtd">
<svg version="1.0" xmlns="http://www.w3.org/2000/svg"
 width="300.000000pt" height="335.000000pt" viewBox="0 0 300.000000 335.000000"
 preserveAspectRatio="xMidYMid meet">
<metadata>
Created by potrace 1.10, written by Peter Selinger 2001-2011
</metadata>
<g transform="translate(0.000000,335.000000) scale(0.100000,-0.100000)"
fill="#000000" stroke="none">
<path d="M1460 3116 c-26 -10 -50 -11 -95 -3 -66 11 -148 3 -167 -17 -7 -7
-20 -15 -28 -19 -28 -14 -58 -33 -76 -47 -16 -14 -16 -13 -4 10 13 24 12 24
-6 10 -46 -34 -72 -67 -78 -98 -5 -21 -15 -34 -30 -38 -41 -10 -46 -53 -31
-253 2 -30 7 -66 10 -80 4 -14 9 -37 11 -51 3 -14 15 -59 28 -100 13 -41 26
-90 29 -108 6 -31 6 -32 -16 -22 -20 10 -20 9 3 -8 21 -17 24 -27 20 -64 -2
-24 -3 -91 -2 -150 2 -106 -5 -127 -28 -90 -8 11 -10 12 -7 2 2 -8 15 -21 29
-28 20 -9 32 -29 48 -80 25 -77 36 -103 67 -154 31 -50 29 -60 -13 -83 -64
-34 -68 -47 -61 -218 4 -84 13 -177 21 -207 l15 -55 -4 65 c-2 36 -6 99 -9
140 l-6 75 55 -160 c30 -88 55 -168 55 -177 0 -10 5 -18 10 -18 6 0 10 6 10
13 0 14 60 -73 60 -88 1 -15 78 -100 85 -93 9 9 -77 136 -119 177 -23 22 -36
44 -36 61 0 14 -11 56 -25 94 -27 75 -30 90 -15 81 6 -3 7 1 4 9 -3 9 -11 13
-17 9 -6 -3 -7 -1 -3 5 4 6 -1 34 -10 62 -18 54 -15 96 9 184 13 48 37 75 37
42 0 -9 6 -16 13 -16 7 0 18 -9 25 -20 7 -11 19 -20 27 -20 9 0 15 -10 15 -25
0 -14 5 -25 11 -25 5 0 7 5 4 10 -3 6 -2 10 3 10 5 0 12 -14 16 -31 5 -24 10
-29 25 -24 11 3 22 1 26 -4 3 -7 0 -8 -9 -5 -25 10 -19 0 15 -25 18 -13 28
-18 24 -11 -6 10 -2 11 16 7 18 -5 28 -1 37 13 10 16 9 18 -4 13 -9 -3 -21 3
-31 16 -8 12 -21 20 -29 17 -8 -3 -11 0 -7 10 6 17 -13 19 -21 2 -3 -7 -3 -3
0 9 3 15 -1 25 -15 32 -11 6 -22 19 -26 30 -3 10 -19 21 -35 25 -21 4 -28 10
-24 21 4 11 2 13 -9 9 -12 -4 -14 0 -10 18 6 20 4 21 -9 10 -14 -11 -17 -10
-23 9 -4 12 -3 24 1 28 12 8 17 34 6 27 -16 -10 -49 22 -47 46 1 13 -8 35 -21
50 -30 36 -62 123 -76 208 -9 53 -9 86 0 147 7 43 11 123 10 179 -2 72 1 105
10 117 10 12 10 17 1 23 -7 4 -18 -1 -26 -11 -12 -17 -13 -16 -13 13 0 22 -5
32 -16 32 -15 0 -44 23 -44 35 0 4 8 14 17 23 16 16 16 16 11 -5 -4 -15 -2
-20 8 -16 11 4 8 14 -11 47 -16 27 -21 46 -15 56 6 9 3 18 -6 25 -13 9 -13 16
1 59 11 33 13 51 6 55 -18 12 0 50 31 63 19 9 27 19 25 30 -6 21 22 59 29 41
3 -7 10 -13 15 -13 6 0 5 9 -1 21 -7 11 -9 23 -6 27 3 3 6 0 6 -7 0 -8 11 -4
30 9 17 12 37 19 45 16 9 -3 12 0 8 10 -4 10 0 12 11 8 9 -3 16 -10 16 -15 0
-5 5 -9 10 -9 6 0 8 10 4 24 -5 21 -3 24 15 19 13 -3 21 -1 21 7 0 9 3 10 13
1 8 -6 17 -8 20 -4 4 3 7 1 7 -5 0 -7 4 -12 9 -12 5 0 7 8 4 19 -6 24 31 35
48 15 7 -8 18 -13 26 -10 7 3 13 -1 13 -10 0 -8 -4 -13 -8 -10 -4 2 -6 -11 -4
-30 3 -27 9 -34 26 -34 19 1 20 1 3 11 -17 10 -17 11 1 27 10 9 17 23 15 30
-3 6 0 12 7 12 6 0 9 3 7 8 -3 4 17 7 44 7 27 0 49 -3 49 -7 0 -15 30 5 30 21
1 13 3 13 16 -4 8 -11 16 -18 17 -16 1 2 11 1 22 -2 20 -7 27 -17 60 -84 8
-18 18 -33 20 -33 10 0 -8 55 -23 72 -8 10 -12 24 -9 33 5 12 11 13 32 3 14
-6 25 -14 25 -18 0 -4 7 -7 15 -7 18 0 19 10 4 40 -9 19 -8 20 3 5 10 -12 19
-13 31 -7 11 7 24 6 37 -1 11 -6 25 -8 30 -5 14 9 2 31 -18 31 -9 1 -43 4 -74
8 -31 3 -59 3 -61 -1 -7 -12 -70 -7 -95 6 -27 14 -78 13 -122 -3z"/>
<path d="M1768 3064 c-4 -3 -4 -13 -1 -22 5 -11 3 -13 -6 -7 -7 4 -5 -5 5 -20
15 -23 15 -28 3 -37 -12 -8 -12 -9 1 -5 10 2 15 17 16 40 1 37 -8 62 -18 51z"/>
<path d="M1845 3063 c29 -22 53 -70 48 -95 -3 -14 0 -34 6 -45 9 -15 10 -12 6
15 -4 21 -2 31 5 27 6 -4 7 1 3 12 -6 16 -5 16 10 4 16 -12 17 -12 8 10 -5 13
-13 23 -18 22 -5 -1 -15 8 -22 20 -11 18 -11 20 0 10 7 -7 20 -13 29 -13 22 0
55 -36 41 -45 -19 -11 -12 -34 9 -30 11 2 20 0 20 -6 0 -5 -11 -9 -25 -9 -14
0 -25 -5 -25 -10 0 -6 11 -8 25 -4 29 7 29 7 14 -34 -7 -20 -7 -37 -1 -49 7
-12 7 -25 0 -37 -8 -14 -7 -17 1 -12 19 12 12 -13 -9 -34 -17 -17 -18 -23 -8
-40 7 -11 16 -20 20 -20 4 0 5 -7 2 -15 -7 -17 11 -21 22 -4 3 6 8 48 9 93 2
44 6 92 10 105 5 15 4 22 -2 18 -13 -8 -10 22 5 51 8 14 9 22 2 22 -5 0 -10
-4 -10 -10 0 -22 -19 -8 -25 19 -7 35 -49 76 -69 68 -8 -3 -16 -2 -18 3 -2 5
-19 12 -38 16 -19 3 -30 2 -25 -3z"/>
<path d="M1325 2778 c-11 -6 -24 -17 -30 -23 -10 -12 -45 -28 -45 -20 0 2 7
11 16 19 24 24 3 19 -28 -7 -64 -54 -73 -61 -73 -57 0 10 -31 -17 -42 -36 -10
-19 -9 -23 7 -27 11 -3 17 0 14 7 -2 6 2 20 10 31 10 13 15 15 16 7 0 -10 3
-10 15 2 8 8 15 19 15 24 0 5 19 15 43 21 23 6 58 24 77 41 37 32 38 37 5 18z"/>
<path d="M2015 2680 c-3 -11 -11 -20 -16 -20 -6 0 -8 -23 -5 -57 3 -35 0 -69
-8 -87 -7 -17 -11 -36 -9 -43 2 -6 -3 -24 -11 -40 l-16 -28 3 47 c1 27 7 48
12 48 6 0 2 5 -8 11 -17 10 -18 12 -1 30 9 10 21 16 25 13 5 -3 6 2 3 10 -3 9
-11 16 -17 16 -7 0 -7 4 1 12 7 7 12 17 12 23 0 5 -6 1 -13 -10 -12 -21 -14
-26 -16 -51 -2 -24 -31 2 -31 27 0 23 -13 25 -29 5 -10 -11 -8 -23 9 -56 15
-29 24 -73 30 -143 5 -57 18 -130 31 -166 20 -58 21 -69 10 -135 -17 -103 -50
-206 -67 -206 -10 0 -14 -12 -14 -40 0 -31 -4 -40 -17 -40 -9 0 -14 -3 -10 -6
7 -8 -16 -56 -38 -78 -9 -9 -12 -16 -6 -16 6 0 15 6 21 13 6 6 19 23 30 36 24
29 26 19 3 -19 -9 -16 -27 -33 -40 -39 -13 -6 -23 -19 -23 -31 0 -12 -6 -20
-12 -19 -23 4 -47 -12 -41 -27 3 -8 -1 -14 -11 -14 -9 0 -16 -8 -16 -20 0 -12
-7 -20 -17 -20 -15 0 -16 -2 -3 -10 8 -5 10 -10 4 -10 -5 0 -15 5 -21 11 -8 8
-17 4 -34 -15 -29 -33 -101 -66 -145 -66 -18 0 -36 -5 -39 -10 -4 -7 2 -9 17
-5 12 3 48 7 78 9 67 5 164 40 191 69 12 12 28 36 37 52 l16 30 15 -75 c18
-92 18 -158 1 -202 -13 -32 -57 -130 -107 -235 -13 -29 -43 -68 -65 -88 -47
-39 -46 -41 5 -20 25 10 35 20 31 30 -4 8 -2 15 4 15 6 0 12 -5 14 -12 3 -9 6
-9 12 0 4 7 2 12 -3 12 -6 0 -11 5 -11 11 0 5 4 8 9 5 13 -8 41 4 41 17 0 7
-4 7 -12 -1 -21 -21 -29 -13 -11 12 10 13 23 22 29 19 7 -3 14 14 19 43 8 54
25 95 36 89 4 -3 5 3 3 12 -3 10 5 32 16 48 12 18 20 24 21 15 1 -26 17 25 34
106 18 89 11 125 -36 178 l-28 33 28 34 c39 48 68 116 86 201 8 40 20 84 25
98 5 14 12 45 14 70 2 25 8 68 11 97 6 39 4 57 -9 74 -22 32 -20 110 4 184 36
112 47 171 37 196 -11 28 -9 76 4 102 6 11 6 17 0 17 -5 0 -13 -9 -16 -20z"/>
<path d="M1773 2426 c-6 -8 -9 -17 -6 -20 4 -3 -1 -6 -11 -6 -9 0 -14 5 -11
10 10 15 -42 12 -57 -4 -9 -9 -20 -11 -35 -5 -16 6 -27 4 -38 -7 -8 -9 -23
-13 -32 -10 -12 5 -13 3 -5 -7 6 -7 8 -24 5 -37 -5 -18 -3 -21 8 -14 8 4 19
10 24 11 6 1 37 9 70 18 33 8 78 16 100 16 22 1 44 6 48 13 6 8 10 8 14 -1 6
-15 53 -18 53 -3 0 13 -41 50 -56 50 -7 0 -15 -6 -18 -12 -3 -10 -9 -8 -19 5
-17 20 -18 20 -34 3z"/>
<path d="M1133 2402 c-13 -9 -26 -33 -29 -52 l-7 -35 25 23 c22 20 32 22 89
17 35 -2 82 -7 104 -11 22 -3 49 -6 60 -6 11 1 27 -6 36 -14 15 -13 17 -13 23
2 11 29 -11 41 -158 81 -12 3 -16 1 -12 -6 5 -8 0 -8 -16 -2 -53 20 -93 21
-115 3z"/>
<path d="M1454 2355 c5 -11 9 -26 9 -33 0 -8 11 -21 25 -30 23 -15 26 -15 42
6 10 11 21 18 26 14 5 -4 1 2 -9 14 -9 11 -17 26 -17 33 0 7 -5 9 -11 5 -6 -3
-8 -17 -5 -30 9 -33 -4 -30 -39 9 -18 20 -26 25 -21 12z"/>
<path d="M1802 2320 c15 -4 39 -18 54 -29 28 -22 44 -27 44 -13 0 14 -76 52
-101 51 -23 -1 -23 -1 3 -9z"/>
<path d="M2012 2295 c-11 -23 -9 -31 8 -55 20 -28 20 -32 5 -89 -27 -104 -9
-91 25 19 16 50 19 74 13 105 -10 47 -34 57 -51 20z"/>
<path d="M939 2298 c-8 -92 23 -250 49 -255 17 -4 15 14 -8 75 -25 66 -25 90
1 118 20 21 20 23 4 48 -18 27 -44 35 -46 14z"/>
<path d="M1173 2293 c-24 -8 -43 -19 -43 -24 0 -6 -4 -7 -10 -4 -5 3 -10 -1
-10 -9 0 -21 6 -20 42 6 17 12 47 27 67 34 20 7 27 13 16 13 -11 0 -39 -7 -62
-16z"/>
<path d="M1690 2303 c-8 -3 -30 -19 -47 -36 -26 -24 -33 -27 -33 -14 0 10 -8
17 -20 17 -11 0 -20 -3 -20 -6 0 -17 24 -46 51 -59 16 -9 39 -25 50 -36 22
-22 59 -24 109 -6 84 30 96 56 16 36 -36 -9 -55 -8 -91 2 -24 7 -47 19 -49 26
-3 7 1 10 8 7 8 -3 17 -1 21 5 4 7 -3 11 -17 11 l-23 1 24 20 25 20 14 -26
c18 -34 65 -32 70 3 4 28 32 26 47 -3 11 -22 59 -33 53 -13 -10 30 -70 58
-122 57 -28 0 -58 -3 -66 -6z"/>
<path d="M1334 2291 c4 -5 -19 -7 -51 -5 -48 4 -65 1 -97 -18 -39 -22 -48 -39
-27 -46 5 -2 20 8 32 22 28 32 47 33 51 4 2 -18 10 -23 33 -23 23 0 31 5 33
23 4 25 6 26 33 12 24 -13 24 -27 2 -33 -11 -3 -5 -5 12 -6 29 -1 26 -16 -5
-23 -8 -2 -21 -9 -29 -17 -15 -14 -97 -11 -133 4 -13 5 -18 3 -18 -8 0 -17 17
-25 83 -37 59 -12 78 -4 140 54 44 41 58 75 28 69 -6 -2 -25 6 -43 17 -35 21
-53 26 -44 11z"/>
<path d="M1344 2056 c-24 -40 -26 -65 -5 -59 9 2 18 15 19 29 1 14 9 32 17 40
18 19 19 21 1 21 -7 0 -22 -14 -32 -31z"/>
<path d="M1676 2063 c10 -18 22 -33 25 -33 4 0 11 -9 14 -20 6 -20 42 -46 51
-37 3 3 -20 31 -52 63 -44 46 -53 52 -38 27z"/>
<path d="M1283 1971 c-3 -12 -13 -21 -25 -21 -10 0 -16 4 -13 10 3 6 -1 7 -9
4 -9 -3 -16 -11 -16 -17 0 -6 3 -7 6 -4 4 3 14 2 23 -3 18 -9 28 -5 49 22 9
12 10 18 2 23 -7 4 -14 -2 -17 -14z"/>
<path d="M1553 1970 c-31 -28 -29 -34 6 -16 26 14 41 12 41 -4 0 -9 -68 -29
-110 -32 -51 -4 -43 -22 11 -26 38 -2 55 2 93 28 69 47 72 57 15 66 -26 4 -39
0 -56 -16z"/>
<path d="M1391 1971 c-11 -7 -9 -13 8 -30 26 -26 66 -29 57 -5 -5 13 -2 15 14
11 23 -6 26 3 8 21 -14 14 -67 16 -87 3z"/>
<path d="M1297 1885 c-12 -11 -17 -12 -21 -2 -3 6 -4 -8 -3 -33 3 -45 3 -45
37 -43 77 5 300 14 385 16 l90 2 3 28 c3 23 0 27 -23 27 -15 0 -24 4 -20 10 3
6 1 10 -6 10 -7 0 -9 -10 -7 -25 5 -23 3 -24 -46 -23 -28 1 -80 -4 -116 -11
-57 -11 -104 -10 -184 4 -10 2 -28 0 -40 -4 -24 -9 -49 -3 -40 10 7 11 14 49
9 49 -2 0 -10 -7 -18 -15z"/>
<path d="M1480 1721 c-14 -4 -33 -7 -42 -5 -24 3 -23 -23 2 -36 14 -8 26 -8
40 0 13 7 39 7 77 1 60 -9 86 -3 96 23 4 9 0 15 -11 15 -9 0 -44 3 -77 5 -33
3 -71 1 -85 -3z"/>
<path d="M956 1418 c-25 -40 -46 -81 -46 -92 0 -25 12 -13 26 27 8 23 16 31
30 29 10 -2 16 -1 12 3 -4 4 2 29 12 56 11 27 18 49 16 49 -2 0 -24 -33 -50
-72z"/>
<path d="M1950 1403 c5 -12 27 -30 48 -40 36 -17 52 -30 52 -46 0 -5 -6 -5
-12 -1 -9 5 -8 2 1 -10 8 -9 17 -13 20 -8 3 5 15 12 26 16 17 6 8 14 -50 43
-38 20 -76 43 -83 52 -11 14 -12 13 -2 -6z"/>
<path d="M693 1247 c-95 -51 -173 -95 -173 -99 0 -4 12 0 28 8 15 7 33 14 40
14 6 0 12 4 12 9 0 11 23 19 67 25 17 2 62 25 100 52 63 45 113 85 102 83 -2
0 -82 -42 -176 -92z"/>
<path d="M2114 1311 c9 -14 117 -77 147 -86 13 -4 -7 12 -46 35 -99 59 -109
64 -101 51z"/>
<path d="M1851 1277 c-1 -10 -4 -16 -8 -14 -5 3 -8 -14 -9 -37 l-1 -41 13 45
c8 25 12 49 10 55 -3 5 -5 2 -5 -8z"/>
<path d="M837 1248 c-24 -18 -31 -19 -38 -7 -8 11 -9 10 -7 -5 3 -21 4 -21
-276 -137 -132 -55 -180 -79 -174 -84 2 -3 54 18 116 45 61 28 119 51 129 53
10 2 41 15 68 29 28 14 61 29 75 33 33 9 150 78 150 88 0 12 -14 7 -43 -15z"/>
<path d="M2113 1249 c4 -13 7 -27 7 -31 0 -5 5 -8 11 -8 15 0 6 53 -10 58 -10
4 -12 -1 -8 -19z"/>
<path d="M2040 1253 c1 -8 105 -97 111 -94 5 2 300 -102 359 -126 25 -10 64
-29 87 -41 44 -23 47 -29 57 -122 2 -19 3 7 3 58 0 50 -3 92 -8 92 -5 0 -9 -7
-9 -15 0 -20 3 -20 -76 19 -38 19 -88 39 -111 46 -23 7 -41 16 -39 19 2 3 -6
7 -18 7 -12 1 -77 21 -144 44 -93 33 -133 52 -167 82 -25 22 -45 36 -45 31z"/>
<path d="M2190 1194 c0 -16 5 -24 13 -22 18 7 20 35 2 41 -11 5 -15 0 -15 -19z"/>
<path d="M915 1109 c-112 -58 -110 -57 -103 -64 3 -3 29 8 57 25 29 16 53 30
54 30 1 0 0 -38 -1 -83 l-4 -84 104 0 c113 -1 169 -6 187 -17 17 -11 13 2 -6
23 -15 15 -37 18 -127 20 -60 1 -113 4 -117 7 -13 8 -11 79 2 108 11 24 63 56
91 56 8 0 20 -17 27 -37 19 -51 61 -117 69 -108 4 4 2 10 -4 12 -6 2 -22 40
-35 83 l-24 80 -35 0 c-24 0 -70 -18 -135 -51z"/>
<path d="M354 1077 c-27 -23 -66 -109 -39 -87 7 6 15 24 19 40 3 19 15 35 31
42 14 6 25 15 25 20 0 13 -7 10 -36 -15z"/>
<path d="M1800 1075 c0 -27 -30 -71 -63 -90 -21 -12 -51 -18 -97 -18 l-66 0
-17 -46 c-9 -26 -34 -63 -57 -86 l-42 -40 -16 24 c-10 14 -25 34 -35 45 -14
15 -12 10 4 -19 13 -22 27 -42 31 -43 5 -2 4 -10 -3 -18 -9 -12 -5 -14 25 -14
20 0 36 4 36 9 0 5 14 23 30 41 42 45 66 82 65 100 -1 25 21 36 43 21 11 -6 8
-16 -12 -46 -14 -21 -26 -46 -26 -57 0 -34 -20 -59 -62 -77 l-41 -17 26 -17
c24 -15 27 -15 49 2 12 10 37 42 53 70 26 43 34 50 55 47 14 -3 84 -8 155 -11
72 -4 137 -8 146 -11 14 -4 18 9 24 81 4 47 9 85 11 85 3 0 19 -7 35 -16 17
-8 33 -13 36 -11 7 7 -217 114 -254 122 -27 5 -33 3 -33 -10z m104 -55 c5 -5
18 -10 27 -10 28 0 30 -14 13 -82 -21 -82 -27 -89 -65 -76 -16 6 -41 8 -55 5
-13 -2 -27 0 -30 4 -3 5 -27 9 -55 9 -29 0 -49 4 -49 11 0 17 -30 -10 -52 -46
-28 -46 -21 -7 9 53 14 29 31 51 37 49 25 -9 115 52 135 90 9 19 15 20 43 12
17 -5 36 -13 42 -19z m81 -127 c-4 -28 -11 -43 -21 -43 -17 0 -18 -3 3 78 15
54 19 61 21 38 2 -17 1 -49 -3 -73z"/>
<path d="M2266 1058 c22 -37 117 -149 122 -144 3 4 -4 20 -16 36 -12 16 -22
32 -22 35 0 10 -53 65 -74 77 -14 8 -17 7 -10 -4z"/>
<path d="M236 969 c-92 -103 -167 -274 -185 -424 -5 -44 -17 -140 -26 -213
-19 -152 -17 -188 7 -122 26 75 38 137 38 203 1 125 48 334 85 377 8 8 16 26
20 40 3 14 14 35 23 47 17 22 17 22 18 -28 2 -81 19 -76 20 6 1 48 -3 72 -9
68 -6 -3 -7 -1 -3 6 4 6 11 9 15 7 4 -3 17 15 29 39 12 25 20 45 18 45 -2 0
-25 -23 -50 -51z"/>
<path d="M1220 1000 c-1 -8 -1 -19 0 -25 1 -5 3 -16 3 -23 1 -22 22 -6 25 19
2 18 0 20 -7 10 -7 -11 -10 -9 -14 10 -2 13 -5 17 -7 9z"/>
<path d="M2680 987 c8 -11 13 -34 12 -52 -2 -26 2 -35 18 -40 16 -5 18 -10 10
-26 -8 -15 -7 -23 4 -35 28 -28 73 -147 114 -304 21 -78 39 -217 23 -170 -8
23 -9 23 -10 -10 0 -19 3 -51 9 -70 5 -19 11 -60 14 -90 3 -30 10 -80 17 -110
7 -30 12 -61 10 -68 -1 -7 8 -12 22 -12 l23 0 -18 97 c-10 54 -22 136 -29 183
-24 186 -61 389 -84 460 -24 71 -109 229 -136 254 -8 6 -7 4 1 -7z"/>
<path d="M1272 910 c-8 -13 -9 -20 -1 -20 11 0 39 24 39 34 0 14 -26 4 -38
-14z"/>
<path d="M280 860 c0 -29 3 -50 7 -46 7 7 5 87 -3 95 -2 2 -4 -20 -4 -49z"/>
<path d="M1361 880 c-1 -15 3 -30 8 -35 5 -6 11 -19 14 -30 4 -16 5 -15 5 5 1
14 -5 39 -13 55 -13 30 -13 30 -14 5z"/>
<path d="M1246 870 c7 -24 39 -55 58 -55 5 0 28 -18 51 -41 23 -22 47 -38 53
-36 7 2 12 -2 12 -8 0 -7 8 -9 20 -5 11 3 20 2 20 -3 0 -5 -9 -12 -20 -15 -11
-3 -20 -14 -20 -25 0 -16 -6 -19 -29 -16 -31 4 -41 -12 -41 -68 0 -15 -4 -29
-10 -33 -5 -3 -7 -11 -5 -18 9 -24 12 -291 5 -390 -4 -55 -3 -114 1 -131 6
-29 7 -28 8 14 12 358 21 559 27 578 7 26 21 28 44 7 10 -9 24 -13 35 -9 17 7
16 8 -3 15 -26 10 -30 56 -7 65 22 9 45 -14 45 -43 0 -17 5 -24 17 -21 9 2 19
10 21 18 5 13 3 13 -13 0 -17 -14 -18 -13 -11 13 7 31 -9 61 -27 50 -6 -4 -8
4 -5 21 3 14 1 26 -3 26 -5 0 -9 -4 -9 -10 0 -15 -37 -12 -43 4 -3 8 -39 36
-79 62 -40 26 -79 55 -86 63 -11 14 -12 12 -6 -9z"/>
<path d="M2460 816 c0 -4 11 -23 24 -44 30 -48 49 -140 44 -224 -1 -36 0 -64
5 -61 4 2 7 10 7 16 0 7 18 56 40 110 22 53 40 99 40 102 0 2 -7 2 -15 -1 -8
-4 -13 -10 -10 -14 3 -4 -4 -28 -14 -52 -15 -34 -20 -39 -26 -25 -4 9 -2 23 4
31 9 11 8 17 -2 27 -7 8 -26 38 -42 67 -26 48 -55 84 -55 68z"/>
<path d="M2700 803 c0 -12 -3 -28 -6 -37 -3 -9 -1 -16 5 -16 16 0 26 49 12 63
-8 8 -11 6 -11 -10z"/>
<path d="M505 767 c1 -12 4 -24 5 -27 3 -7 7 -22 9 -40 1 -12 4 -11 12 3 8 14
8 22 0 30 -6 6 -11 19 -11 28 0 10 -4 20 -9 23 -4 3 -7 -5 -6 -17z"/>
<path d="M1170 771 c0 -9 115 -31 156 -31 25 1 27 2 11 11 -10 6 -25 8 -32 5
-8 -3 -17 -1 -20 4 -3 5 -11 7 -19 4 -7 -3 -31 -1 -54 5 -23 5 -42 6 -42 2z"/>
<path d="M439 720 c-19 -16 -29 -29 -24 -30 14 0 71 47 64 54 -3 3 -21 -8 -40
-24z"/>
<path d="M1357 706 c13 -18 21 -21 31 -14 10 8 8 13 -5 24 -31 23 -46 17 -26
-10z"/>
<path d="M313 713 c-18 -6 -16 -43 2 -43 10 0 15 -10 15 -27 0 -38 10 -73 21
-73 12 0 11 26 -1 64 -5 17 -13 43 -17 57 -5 14 -14 24 -20 22z"/>
<path d="M224 696 c4 -11 12 -53 18 -95 12 -89 30 -131 23 -56 -7 81 -22 146
-35 158 -10 10 -11 8 -6 -7z"/>
<path d="M1600 697 c0 -13 8 -15 38 -10 45 7 54 13 19 13 -14 0 -32 3 -41 6
-10 4 -16 1 -16 -9z"/>
<path d="M2438 694 c-4 -3 -3 -17 3 -31 13 -34 11 -43 -7 -43 -13 0 -14 -3 -4
-15 7 -8 16 -12 21 -9 5 3 14 -6 21 -20 16 -36 40 -35 32 2 -21 85 -49 134
-66 116z"/>
<path d="M575 677 c-19 -10 -90 -96 -83 -102 2 -1 13 -6 26 -9 15 -5 22 -3 22
6 0 14 17 49 44 91 10 15 17 26 15 26 -2 -1 -13 -6 -24 -12z"/>
<path d="M2715 680 c-3 -6 1 -12 9 -15 9 -3 22 -7 30 -9 9 -3 12 2 9 15 -6 20
-37 26 -48 9z"/>
<path d="M1554 649 c0 -12 7 -24 14 -27 9 -3 13 3 10 19 -4 29 -26 36 -24 8z"/>
<path d="M2340 636 c0 -14 29 -31 38 -21 6 6 -18 35 -29 35 -5 0 -9 -6 -9 -14z"/>
<path d="M426 557 c-10 -7 -20 -28 -22 -47 -5 -39 -3 -38 25 18 23 46 23 48
-3 29z"/>
<path d="M1470 553 c0 -49 89 -107 104 -67 5 14 4 15 -8 5 -12 -10 -16 -8 -21
8 -3 12 -11 21 -16 21 -6 0 -21 12 -34 28 -23 26 -24 26 -25 5z"/>
<path d="M2433 495 c4 -43 7 -90 7 -104 l1 -26 15 28 c13 24 14 39 4 98 -17
100 -35 102 -27 4z"/>
<path d="M474 534 c-3 -12 -3 -27 0 -32 3 -6 -12 -29 -35 -53 -39 -41 -40 -43
-19 -51 25 -9 40 -3 40 16 0 7 9 21 19 30 11 10 17 24 14 32 -3 8 1 22 9 32
28 32 28 40 3 44 -20 4 -27 0 -31 -18z"/>
<path d="M2799 549 c-1 -15 1 -45 4 -70 2 -9 11 -25 22 -35 19 -19 19 -19 11
1 -5 11 -12 40 -17 64 -9 46 -18 64 -20 40z"/>
<path d="M347 522 c-8 -12 -4 -57 12 -137 l9 -40 0 50 c1 71 -11 143 -21 127z"/>
<path d="M1380 510 c-10 -18 -8 -20 20 -20 34 0 39 14 10 30 -15 8 -21 6 -30
-10z"/>
<path d="M2230 501 c0 -20 13 -41 25 -41 8 0 17 -9 20 -20 3 -11 11 -20 16
-20 17 0 9 28 -17 59 -25 31 -44 40 -44 22z"/>
<path d="M1500 450 c-9 -6 -10 -10 -3 -10 6 0 21 -16 33 -35 13 -21 26 -32 33
-28 7 3 9 3 5 -1 -15 -17 121 -176 150 -176 11 0 5 11 -19 37 -54 58 -56 61
-105 124 -25 33 -49 58 -52 54 -3 -3 -11 6 -16 20 -8 19 -15 22 -26 15z"/>
<path d="M2444 316 c-7 -7 -13 -74 -16 -165 -4 -109 -2 -148 5 -135 6 11 10
55 8 100 -1 44 3 109 9 143 12 68 11 76 -6 57z"/>
<path d="M374 260 c4 -19 9 -62 13 -95 6 -61 22 -111 23 -70 0 31 -29 187 -36
194 -4 3 -4 -10 0 -29z"/>
<path d="M1582 155 c13 -14 113 -32 133 -24 22 8 21 9 -15 15 -68 11 -124 15
-118 9z"/>
<path d="M1401 57 c-6 -6 -11 -22 -10 -36 0 -15 3 -20 6 -13 2 6 12 12 21 12
15 0 15 2 2 10 -12 8 -12 10 2 15 25 10 40 -3 29 -24 -7 -13 -5 -17 10 -18 19
-2 26 22 11 43 -10 16 -59 23 -71 11z"/>
</g>
</svg>
